<?xml version="1.0" encoding="UTF-8" standalone="no"?>
<svg
   xmlns:dc="http://purl.org/dc/elements/1.1/"
   xmlns:cc="http://creativecommons.org/ns#"
   xmlns:rdf="http://www.w3.org/1999/02/22-rdf-syntax-ns#"
   xmlns:svg="http://www.w3.org/2000/svg"
   xmlns="http://www.w3.org/2000/svg"
   version="1.1"
   viewBox="0 0 180 55.7">
  <g
     transform="translate(-179.52809,-163.86819)"
     style="display:inline"
     id="layer1">
    <path
       style="fill:#FFFFFF;fill-opacity:1"
       d="m 186.73027,167.27841 c 0,0 13.89032,-6.75569 26.50007,-1.25 11.83325,5.16664 18.75,21.41657 7.4165,37.00007 -3.93125,5.406 -10.58325,9 -10.58325,9 0,0 7.41675,-14.125 2.54175,-25.8335 -3.82475,-9.18558 -10.87507,-13.58325 -14.95842,-15.58325 -4.42565,-2.16767 -10.91665,-3.33332 -10.91665,-3.33332 z"
       id="path4153" />
    <text
       transform="scale(0.96219202,1.0392936)"
       id="text4162"
       y="203.17035"
       x="239.10294"
       style="font-style:normal;font-weight:normal;font-size:57.95048904px;line-height:125%;font-family:sans-serif;letter-spacing:0px;word-spacing:0px;fill:#000000;fill-opacity:1;stroke:none;stroke-width:1px;stroke-linecap:butt;stroke-linejoin:miter;stroke-opacity:1"
       xml:space="preserve"><tspan
         style="font-style:normal;font-variant:normal;font-weight:bold;font-stretch:normal;font-family:'Segoe UI';-inkscape-font-specification:'Segoe UI Bold';fill:#FFFFFF;fill-opacity:1"
         y="203.17035"
         x="239.10294"
         id="tspan4164">DIPS</tspan></text>
    <path
       style="display:inline;fill:#FFFFFF;fill-opacity:1"
       d="m 179.52809,174.66782 c 0,0 4.08333,-1.83335 8.25,-2.66667 4.16668,-0.83333 8.55568,-0.66668 8.55568,-0.66668 0,0 9.27757,3.55568 14.02757,12.75 4.6495,8.99893 2.41675,16.97243 1.0835,21.49993 -1.0555,3.5835 -3.4445,7.02775 -2.111,7.52775 1.33325,0.5 2.111,-0.611 2.111,-0.611 0,0 -1.77775,2.028 -4.111,3.778 -2.3335,1.75 -4.63907,3.222 -4.63907,3.222 0,0 7.08332,-13.05525 3.25007,-24.5 -3.35642,-10.02033 -11.00007,-14.66668 -14.66675,-16.66668 -4.97532,-2.71367 -11.75,-3.66665 -11.75,-3.66665 z"
       id="path4153-9" />
    <rect
       y="165.54146"
       x="368.91989"
       height="49.082699"
       width="2.1690392"
       id="rect4202"
       style="fill:#FFFFFF;fill-opacity:1" />
  </g>
</svg>
