<svg
   viewBox="0 0 56.460681 66.99433"
   width="56.460678"
   height="66.994331">
 <g
     style="display:inline"
     transform="matrix(1.2042202,0,0,1.2042202,-216.19135,-197.33339)">
    <path
       id="path4153"
       d="m 186.73027,167.27841 c 0,0 13.89032,-6.75569 26.50007,-1.25 11.83325,5.16664 18.75,21.41657 7.4165,37.00007 -3.93125,5.406 -10.58325,9 -10.58325,9 0,0 7.41675,-14.125 2.54175,-25.8335 -3.82475,-9.18558 -10.87507,-13.58325 -14.95842,-15.58325 -4.42565,-2.16767 -10.91665,-3.33332 -10.91665,-3.33332 z"
       style="fill:#000000;fill-opacity:1" />
    <path
       id="path4153-9"
       d="m 179.52809,174.66782 c 0,0 4.08333,-1.83335 8.25,-2.66667 4.16668,-0.83333 8.55568,-0.66668 8.55568,-0.66668 0,0 9.27757,3.55568 14.02757,12.75 4.6495,8.99893 2.41675,16.97243 1.0835,21.49993 -1.0555,3.5835 -3.4445,7.02775 -2.111,7.52775 1.33325,0.5 2.111,-0.611 2.111,-0.611 0,0 -1.77775,2.028 -4.111,3.778 -2.3335,1.75 -4.63907,3.222 -4.63907,3.222 0,0 7.08332,-13.05525 3.25007,-24.5 -3.35642,-10.02033 -11.00007,-14.66668 -14.66675,-16.66668 -4.97532,-2.71367 -11.75,-3.66665 -11.75,-3.66665 z"
       style="display:inline;fill:#000000;fill-opacity:1" />
  </g>
</svg>
