<?xml version="1.0" encoding="UTF-8" standalone="no"?>
<svg
   xmlns:dc="http://purl.org/dc/elements/1.1/"
   xmlns:cc="http://creativecommons.org/ns#"
   xmlns:rdf="http://www.w3.org/1999/02/22-rdf-syntax-ns#"
   xmlns:svg="http://www.w3.org/2000/svg"
   xmlns="http://www.w3.org/2000/svg"
   viewBox="0 0 700.57605 215.90636">
   <g
     id="g10"
     transform="matrix(1.25,0,0,-1.25,-2.9184325,637.96825)">
     <g
       id="g12"
       transform="matrix(0.1,0,0,0.1,-24.915254,-41.348478)">
       <path
         d="m 487.5,5352.48 c 0,0 416.711,202.67 795,37.5 355,-155 562.5,-642.5 222.5,-1110 -117.94,-162.18 -317.5,-270 -317.5,-270 0,0 222.5,423.75 76.25,775 -114.74,275.57 -326.25,407.5 -448.75,467.5 -132.77,65.03 -327.5,100 -327.5,100"
         style="fill:#ffffff;fill-opacity:1;fill-rule:nonzero;stroke:none"
         id="path14" />
         <path
         d="m 272.5,5134.98 c 0,0 122.5,55 247.5,80 125,25 256.672,20 256.672,20 0,0 278.328,-106.67 420.828,-382.5 139.48,-269.97 72.5,-509.17 32.5,-645 -31.66,-107.5 -103.33,-210.83 -63.33,-225.83 40,-15 63.33,18.33 63.33,18.33 0,0 -53.33,-60.84 -123.33,-113.34 -70,-52.5 -139.17,-96.66 -139.17,-96.66 0,0 212.5,391.66 97.5,735 -100.691,300.61 -330,440 -440,500 -149.262,81.41 -352.5,110 -352.5,110"
         style="fill:#ffffff;fill-opacity:1;fill-rule:nonzero;stroke:none"
         id="smallsail" />
         <path
         d="m 3360.39,4184.7 -312.74,0 0,1190.95 312.74,0 0,-1180.95"
         style="fill:#ffffff;fill-opacity:1;fill-rule:nonzero;stroke:none"
         id="path18" />
         <path
         d="m 2227.99,5137.36 0,-713.33 c 63.56,0.06 118.09,1.25 162.19,3.54 43.43,2.26 85.36,15.89 124.61,40.58 46.39,29.23 82.2,70.16 106.43,121.67 24.44,51.91 36.82,116.4 36.82,191.67 0,75.2 -13.04,140.32 -38.73,193.53 -25.45,52.66 -65.23,94.46 -118.24,124.26 -38.3,21.17 -79.05,32.91 -121.07,34.93 -42.79,2.04 -93.9,3.09 -152.01,3.15 m 62.39,-952.83 -376.65,0 0,1191.54 373.5,0 c 82.44,0 160.75,-5.33 232.77,-15.84 72.98,-10.66 142.34,-36.82 206.16,-77.8 78.17,-49.98 140.76,-118.33 185.98,-203.16 45.15,-84.79 68.04,-185.76 68.04,-300.15 0,-110.3 -24.5,-210.53 -72.86,-297.93 -48.31,-87.36 -110.36,-155.42 -184.36,-202.28 -61.69,-39.87 -129.84,-65.91 -202.45,-77.34 -71.67,-11.31 -149.09,-17.04 -230.13,-17.04"
         style="fill:#ffffff;fill-opacity:1;fill-rule:nonzero;stroke:none"
         id="path20" />
         <path
         d="m 3769.92,4806.44 10.46,0 c 27.91,0 54.31,0.25 78.5,0.77 23.97,0.5 45.18,2.31 63.04,5.36 14.9,2.51 30.92,7.42 47.64,14.67 16.34,7.07 28.91,14.97 37.43,23.47 18.78,18.28 31.58,37.32 38.12,56.71 6.7,19.81 10.09,47.32 10.09,81.78 0,30.9 -7.38,57.78 -21.94,79.85 -14.52,22.01 -32.03,37.3 -52.07,45.42 -26.84,11.65 -52.62,18.39 -76.84,20.14 -25.36,1.83 -59.92,2.74 -102.72,2.74 l -31.71,0 0,-330.91 z m 0,-621.92 -314.27,0 0,1191.55 464.79,0 c 68.11,0 127.84,-6.31 177.49,-18.78 50,-12.59 95.92,-32.78 136.5,-60.02 45.29,-30.19 80.86,-71.07 105.71,-121.5 24.68,-50.26 37.19,-110.63 37.19,-179.5 0,-55.42 -8.92,-108.93 -26.52,-159.08 -17.7,-50.44 -43.61,-93.26 -77.03,-127.23 -20.27,-20.8 -42.82,-40.23 -66.98,-57.74 -24.31,-17.64 -51.6,-32.85 -81.07,-45.19 -29.39,-12.3 -61.67,-22.03 -95.94,-28.92 -34.29,-6.9 -73.2,-10.41 -115.65,-10.41 l -144.22,0 0,-373.17"
         style="fill:#ffffff;fill-opacity:1;fill-rule:nonzero;stroke:none"
         id="path22" />
         <path
         d="m 4827.82,4163.28 c -87.01,0 -157.63,8.09 -228.94,26.26 -69.69,17.78 -158.25,52.22 -212.93,76.31 l -8.88,3.91 3.66,9 89,218.72 4.3,10.53 9.88,-5.57 c 52.33,-29.49 94.95,-47.58 142.87,-65.68 69.39,-26.18 137.54,-39.48 202.6,-39.48 16.81,0 48.85,1.91 75.16,5.42 26.36,3.52 47.75,9.04 63.58,16.47 19.29,8.41 35.56,20.13 48.66,34.94 12.62,14.25 18.75,32.79 18.75,56.71 0,26.4 -10.08,47.24 -30.85,63.77 -21.91,17.4 -48.45,30.29 -78.93,38.27 -10.64,2.79 -20.76,5.57 -30.75,8.3 -27.56,7.51 -53.62,14.62 -86.59,21.48 -45.64,9.5 -88.81,21.27 -128.3,34.99 -92.29,32.51 -159.56,77.12 -199.97,132.58 -40.42,55.52 -60.9,125.81 -60.9,208.89 0,112.47 48.21,204.8 143.35,274.39 96.81,70.84 206,103.82 343.67,103.82 67.12,0 126.97,-6.42 200.12,-21.44 72.64,-14.92 146.85,-45.7 196.35,-67.54 l 8.85,-3.9 -3.61,-8.97 -81.19,-201.69 -4.22,-10.48 -9.89,5.44 c -34.72,19.15 -62.84,30.5 -115.62,46.69 -68.86,21.17 -114.87,28.69 -175.83,28.69 -25.25,0 -42.94,-1.13 -63.16,-4.01 -21.86,-3.13 -34.12,-8.82 -56.34,-19.15 -14.71,-6.73 -29.53,-19.26 -44.07,-37.27 -12.02,-14.8 -17.86,-30.89 -17.86,-49.17 0,-27.03 9.25,-47.8 28.24,-63.52 23.49,-19.41 57.12,-33.47 109.02,-45.55 39.31,-8.91 77.19,-17.57 113.68,-25.97 36.59,-8.43 76.28,-20.19 117.94,-34.94 82.73,-29.89 145.23,-70.81 185.83,-121.58 40.87,-51.18 61.57,-119.34 61.57,-202.56 0,-119.17 -47.49,-216.31 -141.17,-288.81 -91.58,-70.86 -225.44,-108.3 -387.08,-108.3"
         style="fill:#ffffff;fill-opacity:1;fill-rule:nonzero;stroke:none"
         id="path24" />
         </g>
         <rect
       transform="scale(1,-1)"
       style="display:inline;fill:#ffffff;fill-opacity:1"
       id="rect4202"
       width="6.1843834"
       height="163.39751"
       x="575"
       y="-510.3746" />
       </g>
       </svg>